<svg xmlns="http://www.w3.org/2000/svg" xmlns:xlink="http://www.w3.org/1999/xlink" width="500" zoomAndPan="magnify" viewBox="0 0 375 374.999991" height="500" preserveAspectRatio="xMidYMid meet" version="1.0"><defs><clipPath id="0b26f78255"><path d="M 15 55 L 362.75 55 L 362.75 321 L 15 321 Z M 15 55 " clip-rule="nonzero"/></clipPath></defs><g clip-path="url(#0b26f78255)"><path fill="#000000" d="M 96.101562 78.191406 C 95.660156 73.234375 93.925781 67.101562 95.808594 62.359375 C 93.269531 62.359375 90.734375 62.429688 88.230469 62.746094 C 75.496094 64.371094 73.070312 77.953125 72.078125 88.113281 C 75.902344 88.496094 79.726562 88.925781 83.535156 89.398438 C 83.660156 89.117188 83.820312 88.824219 84.035156 88.566406 C 88.296875 83.394531 91.554688 80.007812 96.101562 78.191406 Z M 96.214844 119.578125 C 97.960938 110.152344 89.378906 101.953125 80.527344 102.023438 C 76.835938 102.046875 73.214844 102.214844 69.5625 101.738281 C 65.660156 101.695312 60.492188 100.824219 56.785156 102.316406 C 50.660156 104.710938 50.003906 112.757812 50.636719 118.359375 C 52.070312 131.511719 68.648438 131.996094 78.800781 131.996094 C 82.535156 131.996094 86.289062 132.085938 90.046875 131.851562 C 96.699219 131.398438 95.449219 123.652344 96.214844 119.578125 Z M 104.378906 133.195312 C 106.195312 127.367188 105.667969 121.769531 105.070312 115.796875 C 104.59375 111.03125 102.25 107.441406 101.15625 102.980469 C 100.601562 100.734375 101.378906 99.222656 102.800781 98.195312 C 101.3125 97.878906 99.835938 97.574219 98.324219 97.167969 C 85.261719 93.40625 70.679688 94.457031 57.210938 93.667969 C 53.691406 93.453125 50.0625 92.617188 46.566406 92.539062 C 38.953125 92.402344 39.097656 103.601562 39.222656 108.039062 C 39.355469 113.335938 42.59375 116.347656 44.511719 117.691406 C 44.457031 115.875 44.578125 114.058594 44.769531 112.285156 C 46.371094 97.28125 55.914062 95.65625 68.816406 95.746094 C 69.03125 95.722656 69.269531 95.722656 69.5625 95.746094 C 77.625 96.761719 85.351562 94.796875 92.671875 99.132812 C 98.5625 102.632812 103.140625 111.371094 102.507812 118.054688 C 102.125 122.175781 101.976562 128.882812 99.394531 133.171875 C 100.21875 133.171875 101.03125 133.171875 101.84375 133.195312 C 102.734375 133.214844 103.570312 133.214844 104.378906 133.195312 Z M 117.609375 122.773438 C 118.828125 117.589844 119 105.160156 113.617188 101.738281 C 113.59375 101.738281 113.550781 101.738281 113.515625 101.738281 C 105.453125 102.316406 108.859375 103.253906 109.839844 108.128906 C 110.335938 110.726562 110.742188 113.1875 111.058594 115.796875 C 111.746094 121.328125 112.015625 126.722656 110.84375 132.109375 C 114.238281 130.742188 116.394531 127.964844 117.609375 122.773438 Z M 129.679688 64.925781 C 129.792969 64.925781 129.882812 64.945312 129.984375 64.945312 C 129.273438 64.089844 128.40625 63.410156 127.378906 63.027344 C 121.726562 60.90625 116.945312 62.214844 111.125 62.53125 C 108.464844 62.664062 105.769531 62.621094 103.082031 62.53125 C 102.992188 62.644531 102.890625 62.746094 102.777344 62.835938 C 99.28125 65.714844 101.074219 72.160156 101.867188 76.835938 C 102.699219 76.734375 103.589844 76.652344 104.527344 76.632812 C 104.378906 72.25 103.636719 65.859375 109.332031 65.523438 C 116.335938 65.117188 124.886719 64.925781 129.679688 64.925781 Z M 134.460938 78.71875 C 133.976562 75.964844 133.457031 72.679688 132.5 69.8125 C 131.921875 70.457031 130.964844 70.90625 129.679688 70.90625 C 124.886719 70.90625 120.464844 70.625 115.601562 70.90625 C 114.023438 71.007812 113.066406 71.3125 111.507812 71.414062 C 111.292969 71.460938 111.101562 71.484375 110.933594 71.507812 C 110.71875 73.253906 110.765625 74.984375 110.808594 76.710938 C 118.761719 77.09375 126.566406 78.210938 134.460938 78.71875 Z M 131.15625 274.203125 C 131.15625 259.324219 136.558594 241.847656 132.476562 227.113281 C 132.398438 226.867188 132.375 226.652344 132.351562 226.449219 C 128.28125 218.828125 121.773438 200.402344 113.933594 198.605469 C 106.265625 196.835938 98.5625 194.148438 90.789062 193.007812 C 71.785156 190.195312 52.769531 183.378906 33.808594 181.457031 C 22.132812 195.253906 22.054688 213.746094 23.828125 230.941406 C 24.59375 238.5625 25.054688 246.824219 24.378906 254.46875 C 23.589844 263.570312 27.75 270.976562 32.230469 278.6875 C 37.136719 287.164062 42.730469 290.246094 52.089844 292.574219 C 59.773438 294.515625 67.003906 297.585938 74.617188 299.683594 C 83.515625 302.15625 91.984375 305.320312 100.558594 308.75 C 104.449219 310.332031 112.085938 314.632812 117.058594 314.632812 C 117.082031 314.632812 117.082031 314.609375 117.082031 314.609375 C 120.53125 311.503906 127.0625 302.226562 128.28125 297.96875 C 130.367188 290.753906 131.15625 281.824219 131.15625 274.203125 Z M 134.125 88.394531 C 134.054688 87.109375 133.886719 85.808594 133.738281 84.511719 C 128.089844 83.992188 121.898438 83.101562 116.222656 82.582031 C 110.785156 82.097656 104.449219 82.003906 99.066406 83.078125 C 95.1875 83.84375 92.671875 87.152344 90.382812 90.246094 C 94.894531 90.789062 99.429688 91.363281 103.953125 91.871094 C 106.242188 92.132812 108.25 92.585938 110.078125 93.183594 C 112.703125 88.066406 117.757812 88.710938 123.972656 88.882812 C 127.378906 88.972656 130.75 88.710938 134.125 88.394531 Z M 142.042969 191.257812 C 141.636719 191.109375 141.273438 190.964844 141.015625 190.875 C 135.726562 188.59375 130.671875 188.402344 125.292969 186.988281 C 117.488281 184.921875 109.648438 181.820312 101.550781 181.097656 C 101.15625 181.050781 100.792969 180.949219 100.476562 180.78125 C 88.65625 180.8125 76.308594 180.835938 64.507812 180.023438 C 61.566406 179.808594 58.363281 179.539062 55.082031 179.324219 C 55.082031 179.390625 55.082031 179.449219 55.082031 179.515625 C 55.125 179.683594 55.160156 179.878906 55.160156 180.070312 C 61.304688 181.695312 67.453125 183.320312 73.722656 184.089844 C 82.644531 185.171875 91.917969 186.730469 100.558594 189.144531 C 105.574219 190.535156 111.484375 191.109375 116.585938 193.03125 C 122.304688 191.902344 128.382812 193.074219 134.144531 192.285156 C 136.773438 191.921875 139.414062 191.539062 142.042969 191.257812 Z M 136.558594 138.792969 C 141.523438 138.941406 145.964844 140.113281 147.433594 135.25 C 138.769531 135.078125 129.195312 134.457031 120.25 134.074219 C 120.125 134.074219 120 134.050781 119.867188 134.027344 C 118.90625 135.25 117.734375 136.230469 116.394531 137.019531 C 120.441406 139.988281 133.289062 138.703125 136.558594 138.792969 Z M 146.8125 129.242188 C 146.621094 125.664062 147.117188 121.644531 146.949219 119.058594 C 146.6875 114.429688 146.789062 110.648438 147.714844 106.480469 C 139.886719 105.601562 128.167969 105.410156 121.941406 105.351562 C 123.925781 111.820312 123.453125 119.769531 122.539062 127.605469 C 122.515625 127.820312 122.449219 127.988281 122.40625 128.179688 C 130.515625 128.542969 139.007812 129.074219 146.8125 129.242188 Z M 151.335938 297.078125 C 151.695312 296.003906 152.214844 294.898438 152.8125 293.78125 C 146.664062 296.242188 139.820312 297.652344 135.25 298.65625 C 135.035156 298.703125 134.824219 298.726562 134.628906 298.726562 C 134.167969 300.101562 133.648438 301.367188 132.925781 302.496094 C 130.875 305.703125 128.664062 309.585938 126.226562 313.050781 C 132.035156 310.929688 138.339844 306.617188 143.507812 304.054688 C 147.308594 302.179688 149.800781 301.660156 151.335938 297.078125 Z M 154.730469 154.273438 C 154.753906 154.25 154.753906 154.25 154.773438 154.25 C 154.753906 154.171875 154.730469 154.214844 154.730469 154.273438 C 154.707031 154.273438 154.652344 154.292969 154.628906 154.292969 C 154.605469 154.148438 154.605469 153.765625 154.582031 152.949219 C 151.898438 152.949219 147.5 152.804688 145.019531 153.742188 C 140.585938 155.421875 139.050781 157.003906 138.578125 160.660156 C 143.8125 158.15625 149.203125 156.179688 154.628906 154.292969 C 154.628906 154.363281 154.652344 154.382812 154.652344 154.382812 C 154.683594 154.382812 154.683594 154.316406 154.730469 154.273438 Z M 158.789062 218.703125 C 157.933594 215.046875 155.519531 211.140625 154.605469 207.640625 C 153.578125 203.734375 152.089844 200.0625 149.914062 196.6875 C 144.230469 196.855469 138.578125 198.460938 132.972656 198.460938 C 130.265625 198.460938 127.332031 198.269531 124.410156 198.269531 C 129.679688 204.546875 132.972656 214.75 137.023438 222.441406 C 140.925781 221.503906 144.65625 220.984375 148.628906 220.429688 C 151.164062 220.070312 155.734375 219.832031 158.789062 218.703125 Z M 157.765625 283.902344 C 162.578125 280.910156 161.382812 269.800781 161.382812 264.617188 C 161.382812 251.183594 160.808594 237.964844 160.066406 224.574219 C 157.867188 225.105469 155.472656 225.296875 154.109375 225.601562 C 149.035156 226.753906 143.914062 226.988281 138.835938 228.164062 C 140.113281 235.085938 139.582031 243.664062 139.152344 250.246094 C 138.476562 260.261719 137.765625 270.230469 136.851562 280.199219 C 136.546875 283.6875 136.492188 288.101562 135.972656 292.335938 C 143.53125 290.539062 151.1875 288 157.765625 283.902344 Z M 158.980469 185.285156 C 161.238281 185.027344 164.035156 185.285156 166.503906 185.046875 C 163.695312 182.609375 160.492188 180.667969 156.804688 179.539062 C 156.546875 179.582031 156.285156 179.582031 155.992188 179.582031 C 148.820312 179.582031 142.019531 179.042969 135.058594 179.640625 C 132.996094 179.832031 128.597656 179.730469 124.839844 180.203125 C 128.914062 180.949219 133.019531 181.546875 136.875 182.890625 C 139.988281 183.976562 143.957031 184.980469 147.332031 186.707031 C 147.453125 186.683594 147.566406 186.628906 147.714844 186.582031 C 151.425781 185.859375 155.261719 185.726562 158.980469 185.285156 Z M 167.789062 78.007812 C 167.769531 76.96875 167.769531 75.941406 167.789062 74.914062 C 163.695312 74.507812 159.171875 75.695312 155.089844 75.695312 C 152.574219 75.695312 150.273438 75.605469 147.882812 76.417969 C 145.773438 77.140625 145.109375 78.007812 144.941406 79.339844 C 145.0625 79.511719 145.1875 79.679688 145.253906 79.871094 C 149.226562 79.578125 153.105469 78.246094 157.074219 78.3125 C 160.277344 78.382812 163.289062 78.03125 166.484375 77.78125 C 166.980469 77.761719 167.40625 77.828125 167.789062 78.007812 Z M 168.601562 89.355469 C 168.445312 87.582031 168.230469 85.492188 168.0625 83.226562 C 167.621094 83.539062 167.101562 83.742188 166.484375 83.777344 C 161.878906 84.105469 156.953125 83.96875 152.472656 84.828125 C 150.589844 85.1875 148.628906 85.6875 146.6875 85.789062 C 146.089844 85.808594 145.582031 85.832031 145.152344 85.878906 C 144.804688 86.339844 144.488281 85.878906 146.621094 86.578125 C 147.375 86.835938 148.007812 87.277344 148.414062 87.964844 C 148.695312 88.441406 148.84375 89.039062 148.964844 89.648438 C 149.226562 89.695312 149.542969 89.714844 149.9375 89.785156 C 156.265625 89.886719 162.386719 90.765625 168.601562 89.355469 Z M 168.085938 167.683594 C 168.390625 167.152344 168.75 166.722656 169.15625 166.339844 C 168.683594 163.011719 167.789062 159.828125 166.503906 156.8125 C 158.023438 160.121094 149.179688 162.199219 141.082031 166.511719 C 136.773438 168.789062 129.679688 170.628906 126.035156 174.34375 C 127.917969 174.265625 129.746094 174.222656 131.28125 174.007812 C 134.699219 173.554688 138.339844 173.40625 141.949219 173.40625 C 142.019531 173.261719 142.121094 173.125 142.210938 173 C 146.179688 168.179688 150.082031 168.984375 155.859375 168.328125 C 161.746094 167.683594 164.566406 166.960938 168.085938 167.683594 Z M 169.210938 98.128906 C 169.15625 97.191406 169.109375 96.277344 169.066406 95.339844 C 162.671875 96.59375 156.5 95.777344 149.9375 95.777344 C 146.644531 95.746094 145.132812 95.292969 144.148438 93.644531 C 144.128906 93.644531 144.082031 93.667969 144.027344 93.667969 C 139.671875 93.792969 135.207031 94.527344 130.875 94.863281 C 127.636719 95.101562 118.445312 93.285156 115.625 96.015625 C 116.945312 97 118.039062 98.128906 118.976562 99.371094 C 130.265625 99.371094 140.203125 99.414062 150.828125 100.925781 C 152.339844 99.753906 154.492188 99.414062 156.5 99.371094 C 158.914062 99.289062 161.070312 98.75 163.4375 98.34375 C 165.332031 98.003906 167.292969 98.046875 169.210938 98.128906 Z M 156.332031 114.339844 C 158.871094 110.003906 165.714844 110.5 170.453125 110.476562 C 170.183594 108.378906 169.921875 106.265625 169.707031 104.15625 C 166.460938 104.203125 163.460938 104.617188 160.1875 105.09375 C 157.652344 105.476562 155.96875 106.03125 154.84375 106.910156 C 152.9375 108.445312 152.644531 111.007812 152.53125 115.367188 C 152.359375 120.253906 153.027344 125.097656 153.273438 129.953125 C 153.320312 130.890625 153.839844 131.589844 154.652344 132.15625 C 154.265625 126.296875 153.410156 119.339844 156.332031 114.339844 Z M 172.007812 133.578125 C 172.121094 127.820312 172.03125 122.074219 171.289062 116.472656 C 169.066406 116.621094 166.886719 116.734375 164.632812 116.734375 C 162.152344 116.734375 161.644531 117.355469 160.976562 119.53125 C 159.636719 123.925781 160.492188 129.09375 160.730469 133.714844 C 164.699219 134.050781 169.28125 133.714844 172.007812 133.578125 Z M 175.980469 197.773438 C 174.59375 195.039062 173.011719 192.453125 171.195312 190.105469 C 171.09375 190.152344 170.984375 190.21875 170.859375 190.273438 C 167.835938 191.371094 164.25 190.578125 161.089844 191.019531 C 158.675781 191.347656 156.183594 191.515625 153.726562 191.753906 C 153.871094 191.878906 153.984375 192.015625 154.074219 192.160156 C 155.6875 194.316406 156.90625 196.621094 157.933594 199.035156 C 164.113281 198.96875 170.09375 198.5625 175.980469 197.773438 Z M 178.628906 268.503906 C 177.511719 268.785156 176.363281 269.035156 175.144531 269.125 C 172.96875 269.316406 169.109375 269.394531 167.035156 269.417969 C 166.933594 271.742188 166.84375 274.078125 166.675781 276.429688 C 171.886719 274.679688 175.765625 271.957031 178.628906 268.503906 Z M 176.09375 214.75 C 177.898438 213.453125 179.882812 213.894531 181.742188 213.769531 C 180.886719 210.371094 179.8125 206.894531 178.496094 203.519531 C 176.621094 203.800781 174.90625 204.457031 172.96875 204.457031 C 170.949219 204.457031 168.773438 204.476562 166.765625 204.761719 C 165.082031 204.996094 162.433594 205.078125 160.1875 205.078125 C 160.515625 206.105469 160.855469 207.132812 161.191406 208.148438 C 161.9375 210.460938 163.898438 214.085938 164.699219 217.292969 C 168.445312 217.191406 173.082031 216.90625 176.09375 214.75 Z M 184.832031 254.445312 C 184.789062 254.445312 184.753906 254.46875 184.710938 254.46875 C 184.710938 254.46875 181.914062 255.046875 180.21875 255.046875 C 178.460938 255.046875 177.027344 255.011719 175.28125 255.15625 C 173.136719 255.328125 169.371094 255.351562 167.226562 255.351562 C 167.238281 258.058594 167.226562 260.746094 167.191406 263.445312 C 170.835938 263.480469 172.628906 263.523438 175.382812 263.070312 C 177.535156 262.710938 179.667969 262.011719 181.742188 261.433594 C 182.125 261.34375 182.488281 261.324219 182.824219 261.367188 C 183.707031 259.164062 184.382812 256.863281 184.832031 254.445312 Z M 184.519531 231.210938 C 184.664062 231.179688 184.789062 231.179688 184.921875 231.179688 C 184.640625 228.808594 184.28125 226.460938 183.917969 224.191406 C 183.683594 222.65625 183.367188 221.050781 183.039062 219.402344 C 182.824219 219.402344 182.578125 219.425781 182.363281 219.425781 C 180.199219 219.425781 179.09375 220.046875 177.242188 221.097656 C 174.320312 222.800781 169.707031 223.140625 165.976562 223.253906 C 166.167969 226.582031 166.335938 229.890625 166.503906 233.222656 C 167.316406 233.144531 168.105469 233.144531 168.941406 233.175781 C 170.792969 233.222656 172.5625 232.601562 174.355469 232.261719 C 176.171875 231.902344 177.988281 231.597656 179.8125 231.300781 C 181.382812 231.042969 182.960938 231.425781 184.519531 231.210938 Z M 185.601562 248.554688 C 185.859375 244.792969 185.792969 240.910156 185.5 237.050781 C 181.84375 237.476562 178.269531 237.535156 174.59375 238.324219 C 172.121094 238.878906 169.234375 238.652344 166.785156 239.226562 C 166.933594 242.613281 167.046875 245.992188 167.125 249.367188 C 170.859375 249.320312 172.867188 249.175781 175.980469 249.09375 C 178.96875 249.003906 182.316406 248.472656 184.710938 248.472656 C 185.023438 248.472656 185.308594 248.496094 185.601562 248.554688 Z M 191.003906 168.949219 C 191.003906 168.902344 191.003906 168.859375 190.980469 168.8125 C 190.867188 166.703125 189.953125 165.527344 189.019531 163.753906 C 187.652344 161.214844 186.222656 158.460938 184.40625 156.257812 C 184.042969 155.851562 183.851562 155.421875 183.726562 154.960938 C 180.828125 154.984375 177.964844 155.0625 175.144531 155.0625 C 173.304688 155.0625 172.335938 153.671875 172.269531 152.226562 C 171.816406 151.753906 171.523438 151.109375 171.523438 150.265625 C 171.570312 146.730469 171.695312 143.128906 171.839844 139.515625 C 168.828125 139.605469 165.683594 139.683594 162.601562 139.605469 C 165.488281 143.128906 168.105469 146.96875 170.453125 150.792969 C 173.113281 155.105469 174.320312 159.78125 175.019531 164.667969 C 176.769531 164.761719 178.585938 165.144531 180.253906 165.617188 C 181.820312 166.082031 183.0625 166.960938 184.617188 167.425781 C 186.535156 167.964844 188.734375 168.113281 190.597656 168.789062 C 190.742188 168.859375 190.867188 168.902344 191.003906 168.949219 Z M 184.640625 271.066406 C 205.292969 264.71875 205.824219 220.882812 196.699219 205.992188 C 190.890625 196.496094 184.382812 185.816406 176.171875 178.148438 C 172.292969 174.539062 161.578125 172.132812 153.75 173.601562 C 154.515625 173.601562 155.28125 173.601562 155.992188 173.601562 C 156.265625 173.601562 156.5 173.644531 156.738281 173.667969 C 157.1875 173.554688 157.71875 173.554688 158.292969 173.722656 C 180.140625 180.285156 189.910156 210.699219 191.082031 230.851562 C 191.679688 241.25 193.902344 255.113281 188.441406 264.765625 C 187.222656 266.945312 185.984375 269.054688 184.640625 271.066406 Z M 209.75 169.523438 C 209.769531 169.5 209.769531 169.480469 209.792969 169.480469 C 209.21875 167.640625 208.757812 165.789062 208.148438 163.925781 C 207.347656 161.453125 205.992188 159.105469 205.25 156.597656 C 200.535156 155.515625 195.648438 155.128906 190.722656 155.015625 C 191.894531 156.878906 192.921875 158.820312 194.160156 160.71875 C 196.609375 164.421875 196.417969 167.640625 197.207031 171.566406 C 199.144531 171.351562 201.050781 170.992188 203.015625 170.753906 C 205 170.507812 207.539062 170.101562 209.75 169.523438 Z M 207.855469 252.335938 C 213.066406 242.808594 210.84375 233.550781 210.753906 223.332031 C 210.628906 212.066406 207.933594 197.964844 201.085938 188.59375 C 199.042969 185.816406 187.292969 172.980469 181.4375 174.796875 C 191.847656 183.636719 200.285156 198.890625 205.292969 209.796875 C 211.394531 223.117188 208.597656 244.457031 203.523438 258.398438 C 203.648438 258.398438 203.738281 258.351562 203.859375 258.351562 C 203.953125 258.351562 204.03125 258.375 204.121094 258.375 C 205.417969 256.546875 206.65625 254.558594 207.855469 252.335938 Z M 232.667969 239.285156 C 237.40625 216.839844 229.554688 190.320312 212.78125 174.84375 C 211.058594 175.351562 209.242188 175.351562 207.492188 175.777344 C 206.015625 176.164062 204.570312 176.660156 203.015625 176.738281 C 201.582031 176.804688 200.195312 177.019531 198.832031 177.269531 C 199.664062 178.058594 200.453125 178.851562 201.175781 179.582031 C 208.734375 187.183594 215.398438 200.742188 216.109375 211.636719 C 216.921875 223.570312 220.800781 241.125 214.824219 252.074219 C 212.355469 256.601562 209.691406 260.960938 206.769531 265.148438 C 212.230469 264.507812 217.734375 264.359375 223.101562 262.351562 C 228.652344 260.261719 231.496094 244.839844 232.667969 239.285156 Z M 244.339844 180.476562 C 248.941406 173.917969 242.140625 173.644531 239.128906 170.628906 C 238.125 169.625 232.601562 164.285156 230.75 163.328125 C 230.492188 163.179688 230.277344 163.011719 230.085938 162.816406 C 224.195312 161.960938 218.265625 160.449219 212.546875 158.71875 C 212.90625 159.511719 213.257812 160.335938 213.527344 161.148438 C 213.886719 162.21875 214.171875 163.347656 214.464844 164.457031 C 219.796875 162.683594 226.566406 168.214844 230.804688 171.039062 C 234.484375 173.476562 238.554688 177.8125 241.578125 181.074219 C 242.097656 181.648438 242.503906 182.292969 242.886719 182.960938 C 243.347656 182.078125 243.824219 181.222656 244.339844 180.476562 Z M 244.53125 222.417969 C 245.636719 212.550781 245.910156 202.988281 241.734375 193.742188 C 240.425781 192.09375 239.34375 190.082031 238.65625 188.1875 C 237.742188 185.578125 235.757812 184.335938 233.886719 182.460938 C 232.238281 180.8125 221.636719 169.265625 216.730469 170.335938 C 234.304688 186.175781 242.605469 212.359375 239.34375 235.785156 C 238.894531 239.035156 238.214844 242.726562 237.3125 246.488281 C 237.472656 246.511719 237.664062 246.566406 237.832031 246.632812 C 242.097656 239.523438 243.675781 230.0625 244.53125 222.417969 Z M 245.332031 271.6875 C 244.996094 271.042969 244.679688 270.398438 244.339844 269.746094 C 243.574219 268.289062 242.332031 267.089844 241.476562 265.644531 C 240.304688 263.691406 239.917969 260.960938 239.683594 258.445312 C 237.855469 258.78125 236.0625 259.144531 234.269531 259.449219 C 233.75 259.515625 233.265625 259.492188 232.835938 259.359375 C 231.957031 261.21875 230.964844 262.96875 229.894531 264.449219 C 227.839844 267.261719 224.75 268.71875 221.207031 269.5625 C 228.269531 273.796875 236.785156 273.558594 245.332031 271.6875 Z M 251.121094 172.359375 C 255.347656 172.019531 260.144531 170.777344 264.328125 169.625 C 256.691406 168.40625 248.988281 166.316406 241.261719 164.738281 C 242.289062 165.71875 243.371094 166.613281 244.589844 167.253906 C 246.621094 168.304688 249.855469 170.054688 251.121094 172.359375 Z M 270.574219 243.96875 C 272.515625 225.21875 271.152344 206.53125 271.152344 187.734375 C 271.152344 182.507812 268.46875 178.386719 269.71875 173.9375 C 266.96875 174.648438 264.304688 175.632812 261.789062 176.207031 C 258.542969 176.90625 255.191406 177.867188 251.839844 178.25 C 251.605469 179.855469 250.882812 181.164062 249.519531 183.511719 C 245.953125 189.597656 248.300781 193.886719 249.96875 199.847656 C 252.84375 210.269531 251.4375 222.15625 248.628906 232.5 C 246.6875 239.613281 245.59375 246.226562 241.578125 251.953125 C 251.265625 249.941406 260.933594 247.46875 270.574219 244.714844 C 270.554688 244.5 270.53125 244.242188 270.574219 243.96875 Z M 275.527344 164.476562 C 279.191406 150.386719 275.054688 133.261719 275.054688 119.171875 C 275.054688 103.988281 273.992188 88.757812 274.636719 73.59375 C 260.59375 73.527344 246.257812 71.800781 231.371094 70.308594 C 216.5625 68.832031 202.238281 68.898438 187.394531 67.25 C 184.574219 66.933594 174.703125 64.992188 174.804688 71.007812 C 174.851562 74.476562 174.738281 77.929688 174.738281 81.382812 C 174.703125 89.207031 175.167969 96.953125 175.742188 104.753906 C 176.835938 119.726562 177.625 134.027344 177.535156 149.101562 C 177.582031 148.695312 196.632812 150.367188 198.0625 150.488281 C 209.070312 151.347656 219.4375 153.84375 230.230469 156.496094 C 235.207031 157.738281 240.234375 158.84375 245.3125 159.488281 C 248.515625 159.929688 251.933594 159.351562 255.066406 160.140625 C 257.582031 160.761719 259.523438 162.582031 262.082031 162.941406 C 263.539062 163.15625 265.171875 163.394531 266.773438 163.609375 C 267.394531 163.203125 268.183594 163.011719 269.121094 163.226562 C 270.453125 163.5625 272.753906 164.039062 275.527344 164.476562 Z M 286.105469 172.277344 C 285.835938 172.359375 285.554688 172.402344 285.214844 172.402344 C 272.898438 172.402344 277.128906 179.878906 277.128906 187.734375 C 277.128906 193.3125 277.445312 198.867188 277.445312 204.457031 C 277.445312 217.382812 277.875 230.082031 276.632812 242.964844 C 278.28125 242.492188 279.9375 242.003906 281.5625 241.507812 C 284.574219 218.363281 286.105469 195.660156 286.105469 172.277344 Z M 288.8125 107.894531 C 288.8125 98.027344 292.929688 76.96875 280.773438 73.46875 C 280.726562 73.46875 280.703125 73.46875 280.671875 73.492188 C 280.433594 81.453125 281.03125 89.332031 281.03125 97.257812 C 281.03125 107.394531 280.09375 118.03125 281.03125 128.089844 C 282.035156 138.941406 284.042969 152.351562 281.867188 163.652344 C 284.234375 162.625 286.128906 161.339844 286.128906 156.257812 C 286.128906 148.355469 287.820312 140.734375 287.902344 132.878906 C 288.011719 124.546875 288.8125 116.28125 288.8125 107.894531 Z M 304.367188 124.953125 C 304.367188 111.945312 304.367188 98.917969 304.367188 85.878906 C 304.367188 74.089844 298.480469 71.628906 290.609375 72.058594 C 292.402344 74.089844 293.6875 76.878906 294.578125 80.558594 C 296.222656 87.414062 294.792969 96.183594 294.792969 103.195312 C 294.792969 110.242188 295.128906 117.355469 294.601562 124.355469 C 293.742188 136.082031 292.828125 147.722656 292.1875 159.441406 C 292.109375 161.046875 292.085938 163.371094 291.464844 165.289062 C 297.207031 164.714844 301.851562 162.726562 302.304688 157.984375 C 303.410156 146.84375 304.367188 136.183594 304.367188 124.953125 Z M 300.273438 254.109375 C 312.308594 250.675781 319.855469 249.003906 320.949219 235.660156 C 296.132812 243.113281 270.960938 251.78125 245.546875 257.246094 C 245.785156 259.59375 246.113281 262.460938 247.578125 264.078125 C 249.089844 265.703125 249.609375 268.242188 251.140625 269.699219 C 251.265625 269.824219 251.378906 269.96875 251.480469 270.082031 C 258.5625 267.996094 265.457031 265.273438 271.242188 263.546875 C 280.988281 260.621094 290.507812 256.90625 300.273438 254.109375 Z M 319.921875 157.367188 C 318.769531 156.179688 316.761719 155.707031 315.320312 154.871094 C 313.335938 153.695312 311.585938 152.285156 309.578125 151.257812 C 309.410156 154.554688 309.015625 157.738281 308.214844 160.46875 C 310.277344 159.828125 312.332031 159.226562 314.394531 158.585938 C 316.335938 158.007812 318.09375 157.558594 319.921875 157.367188 Z M 318.433594 94.558594 C 318.816406 89.738281 314.460938 88.28125 310.0625 87.988281 C 310.007812 87.964844 309.984375 87.964844 309.941406 87.964844 C 309.636719 91.851562 309.148438 95.632812 309.148438 98.554688 C 309.148438 105.78125 309.148438 113.019531 309.148438 120.253906 C 312.625 119.398438 317.292969 118.605469 317.53125 114.914062 C 317.746094 111.414062 318.128906 107.972656 318.128906 104.449219 C 318.128906 101.140625 318.152344 97.855469 318.433594 94.558594 Z M 322.957031 178.941406 C 322.628906 173.621094 322.167969 168.304688 321.523438 162.964844 C 320.925781 162.988281 320.351562 163.03125 319.820312 163.179688 C 314.460938 164.828125 308.914062 166.148438 303.792969 168.40625 C 303.148438 168.6875 302.496094 168.757812 301.929688 168.644531 C 298.886719 170.121094 295.558594 170.992188 292.085938 171.398438 C 292.128906 194.554688 290.675781 216.738281 287.777344 239.613281 C 290.4375 238.800781 293.066406 237.984375 295.707031 237.171875 C 295.707031 237.152344 295.707031 237.128906 295.707031 237.082031 C 295.683594 227.226562 295.535156 217.382812 295.457031 207.539062 C 295.414062 202.390625 293.324219 192.691406 296.113281 187.972656 C 297.925781 184.855469 302.382812 184.597656 305.371094 183.589844 C 310.773438 181.796875 317.191406 179.878906 322.957031 178.941406 Z M 318.171875 197.984375 C 318.363281 200.3125 323.800781 202.898438 323.746094 200.832031 C 323.699219 198.605469 323.621094 196.359375 323.621094 194.125 C 320.949219 193.355469 317.914062 194.824219 318.171875 197.984375 Z M 324.039062 222.25 C 324.398438 222.15625 324.152344 216.953125 324.0625 216.265625 C 322.335938 216.648438 321.164062 218.273438 320.902344 219.765625 C 320.609375 221.457031 321.476562 222.96875 324.039062 222.25 Z M 324.34375 228.402344 C 324.34375 228.265625 324.34375 228.117188 324.34375 227.972656 C 322.222656 228.332031 320.304688 228.332031 318.703125 226.324219 C 317.066406 224.3125 315.253906 222.507812 315.5 219.707031 C 315.871094 215.066406 319.4375 210.945312 323.914062 210.054688 C 323.890625 208.949219 323.890625 207.875 323.871094 206.804688 C 319.347656 207.730469 313.652344 206.511719 313.742188 201.464844 C 313.796875 198.3125 313.503906 194.722656 315.445312 192.09375 C 316.378906 190.828125 317.574219 189.292969 319.03125 188.636719 C 320.472656 188.015625 322.886719 187.972656 323.382812 187.972656 C 323.363281 186.988281 323.292969 185.984375 323.269531 185.003906 C 318.769531 185.941406 314.507812 187.65625 310.253906 189.382812 C 308.238281 189.644531 306.25 189.9375 304.265625 190.273438 C 301.582031 192.714844 300.632812 195.660156 301.367188 199.082031 C 301.445312 211.160156 301.617188 223.253906 301.660156 235.332031 C 309.25 232.949219 316.832031 230.601562 324.34375 228.402344 Z M 332.789062 106.910156 C 332.789062 101.910156 335.046875 86.316406 328.390625 84.875 C 326.113281 84.398438 321.566406 83.507812 317.621094 83.632812 C 319.539062 84.445312 321.285156 85.640625 322.640625 87.390625 C 326.238281 92.085938 324.105469 95.800781 324.105469 101.445312 C 324.105469 105.953125 323.484375 110.457031 323.507812 114.914062 C 323.507812 116.28125 323.585938 118.054688 323.125 119.464844 C 324.398438 119.25 325.617188 119.011719 326.769531 118.820312 C 333.601562 117.546875 332.789062 112.65625 332.789062 106.910156 Z M 345.953125 125.71875 C 353.882812 117.457031 357.75 107.53125 354.71875 96.230469 C 352.089844 86.339844 339.0625 68.210938 327.09375 68.210938 C 318.960938 68.210938 314.824219 70.964844 308.914062 74.148438 C 309.535156 75.625 309.871094 77.355469 310.03125 79.171875 C 316.234375 76.03125 325.957031 77.648438 331.808594 79.746094 C 340.382812 82.816406 338.78125 94.863281 338.78125 101.660156 C 338.78125 108.128906 341.046875 119.058594 334.492188 123.113281 C 331.097656 125.1875 326.023438 125.042969 322.1875 125.257812 C 318.75 125.425781 315.613281 126.386719 312.261719 126.746094 C 312.386719 126.871094 312.523438 127.007812 312.625 127.175781 C 317.257812 134.265625 324.421875 133.5 331.742188 133.5 C 338.894531 133.5 341.363281 130.527344 345.953125 125.71875 Z M 340.382812 67.148438 C 352.628906 75.128906 362.589844 90.527344 362.398438 105.332031 C 362.230469 117.816406 351.515625 133.070312 340.789062 138.726562 C 336.433594 141.015625 324.445312 140.542969 319.730469 139.15625 C 315.082031 137.765625 312.027344 135.972656 309.25 132.617188 C 309.386719 135.871094 309.679688 140.238281 309.726562 144.832031 C 314.125 146.4375 317.699219 149.382812 322.03125 151.28125 C 325.132812 152.613281 327.003906 156.5625 326.8125 159.847656 C 326.789062 160.019531 326.769531 160.1875 326.734375 160.355469 C 327.074219 160.785156 327.320312 161.28125 327.386719 161.9375 C 330.253906 184.789062 329.507812 207.1875 330.398438 230.207031 C 330.421875 231.371094 329.890625 232.195312 329.136719 232.644531 C 328.796875 233.121094 328.289062 233.480469 327.601562 233.695312 C 327.410156 233.742188 327.242188 233.796875 327.074219 233.84375 C 326.859375 244.738281 324.613281 251.546875 314.25 256.003906 C 301.230469 261.582031 286.410156 265.339844 272.84375 269.394531 C 254.492188 274.824219 229.609375 286.847656 212.90625 270.726562 C 207.640625 271.167969 202.351562 271.402344 198.492188 273.199219 C 198.0625 273.414062 197.636719 273.515625 197.25 273.515625 C 196.632812 273.796875 196.035156 274.078125 195.503906 274.394531 C 194.5 275.015625 193.519531 274.949219 192.730469 274.519531 C 189.1875 276.890625 184.753906 278.042969 179.070312 277.851562 C 178.84375 278.042969 178.652344 278.222656 178.4375 278.414062 C 174.46875 282.085938 170.644531 281.914062 165.761719 282.976562 C 164.890625 285.269531 163.371094 287.253906 161.363281 288.9375 C 161.328125 289.085938 161.328125 289.21875 161.28125 289.390625 C 160.257812 293.507812 157.742188 299.3125 155.609375 302.96875 C 154.265625 305.320312 151.832031 307.429688 149.15625 308.117188 C 145.851562 309.011719 143.8125 311.382812 140.800781 312.667969 C 137.933594 313.945312 135.207031 315.074219 132.375 316.449219 C 128.472656 318.371094 120.101562 320.335938 120.101562 320.335938 C 119.765625 320.335938 119.484375 320.289062 119.191406 320.242188 C 118.828125 320.4375 118.445312 320.582031 117.996094 320.628906 C 111.101562 321.507812 101.4375 315.523438 95.234375 313.03125 C 85.351562 309.078125 75.132812 306.492188 65.152344 302.859375 C 56.296875 299.617188 46.96875 297.777344 38.230469 294.1875 C 31.054688 291.21875 28.777344 285.222656 25.382812 278.414062 C 20.859375 269.339844 18.402344 264.527344 18.402344 254.46875 C 18.402344 244.667969 18.109375 235.015625 17.65625 225.261719 C 17.316406 218.464844 13.6875 202.875 18.015625 197.027344 C 22.914062 190.386719 24.839844 182.417969 30.34375 176.285156 C 30.953125 175.585938 31.699219 175.304688 32.398438 175.328125 C 41.105469 172.257812 54.054688 172.234375 62.863281 173.722656 C 74.964844 175.777344 88.984375 174.796875 100.964844 174.796875 C 101.289062 174.796875 101.570312 174.945312 101.820312 175.136719 C 106.242188 175.566406 110.59375 176.546875 114.902344 177.742188 C 115.863281 176.695312 117.058594 175.949219 118.421875 175.472656 C 121.207031 168.328125 126.183594 166.960938 132.375 164.207031 C 132.421875 161.191406 132.398438 156.214844 133.976562 153.527344 C 135.363281 151.15625 139.34375 150.488281 141.613281 149.167969 C 144.828125 147.351562 149.15625 148.355469 152.621094 148.085938 C 155.566406 147.871094 158.597656 147.894531 161.597656 148.015625 C 159.570312 145.117188 157.289062 142.359375 154.773438 139.796875 C 154.4375 139.472656 154.222656 139.085938 154.074219 138.726562 C 153.75 138.648438 153.410156 138.554688 153.105469 138.464844 C 152.722656 141.074219 152.046875 143.082031 148.84375 144.449219 C 144.746094 146.175781 138.171875 144.765625 133.863281 144.640625 C 126.082031 144.425781 113.832031 147.25 110.144531 139.03125 C 109.671875 139.085938 109.21875 139.15625 108.734375 139.175781 C 99.734375 139.472656 90.449219 140.238281 81.597656 138.578125 C 78.203125 138.464844 74.898438 138.148438 72.246094 137.933594 C 64.871094 137.40625 56.085938 135.871094 50.082031 131.105469 C 47.828125 129.332031 46.441406 127.039062 45.605469 124.5 C 38.636719 124.523438 35.082031 124.660156 33.640625 115.875 C 32.542969 108.953125 31.96875 94.71875 37.734375 88.925781 C 41.398438 85.257812 46.441406 86.476562 50.996094 87.074219 C 56.0625 87.753906 61.113281 87.367188 66.167969 87.628906 C 67.195312 77.863281 69.460938 68.535156 76.117188 61.019531 C 82.917969 53.304688 98.730469 57.191406 107.324219 56.726562 C 114.304688 56.378906 127.0625 52.898438 132.972656 58.90625 C 136.964844 62.980469 138.410156 68.898438 139.605469 74.621094 C 139.921875 74.070312 140.371094 73.527344 140.992188 73.019531 C 143.125 71.292969 146.5625 70.285156 149.226562 69.902344 C 153.464844 69.304688 158.011719 69.449219 162.265625 69.214844 C 164.28125 69.089844 166.359375 68.921875 168.421875 69.042969 C 169.179688 65.117188 170.8125 62.125 173.902344 61.425781 C 182.417969 59.550781 190.574219 62.429688 199.144531 62.507812 C 207.683594 62.554688 216.617188 62.53125 225.109375 63.410156 C 242.332031 65.285156 258.902344 67.621094 275.652344 67.621094 C 275.785156 67.621094 275.910156 67.621094 276.058594 67.65625 C 276.53125 67.226562 277.175781 66.957031 278.042969 67 C 279.023438 67.082031 279.9375 67.203125 280.839844 67.316406 C 288.429688 65.859375 298.886719 64.246094 305.203125 69.304688 C 310.851562 65.757812 314.101562 60.082031 321.714844 61.019531 C 328.675781 61.886719 334.449219 63.265625 340.382812 67.148438 " fill-opacity="1" fill-rule="nonzero"/></g><path fill="#000000" d="M 313.3125 170.722656 C 316.660156 168.789062 319.683594 173.960938 316.355469 175.902344 C 315.398438 176.445312 314.125 176.636719 313.367188 177.101562 C 310.007812 179.042969 306.996094 173.859375 310.324219 171.917969 C 311.28125 171.375 312.546875 171.183594 313.3125 170.722656 " fill-opacity="1" fill-rule="nonzero"/><path fill="#000000" d="M 304.964844 244.261719 C 306.589844 244.140625 307.953125 245.71875 307.953125 247.277344 C 307.953125 248.984375 306.589844 250.132812 304.964844 250.246094 C 305.585938 250.222656 304.457031 250.371094 304.457031 250.371094 C 304.074219 250.4375 303.601562 250.496094 303.238281 250.585938 C 302.5625 250.730469 301.929688 250.84375 301.277344 251.058594 C 297.566406 252.167969 295.988281 246.375 299.675781 245.269531 C 301.390625 244.761719 303.195312 244.410156 304.964844 244.261719 " fill-opacity="1" fill-rule="nonzero"/><path fill="#000000" d="M 302.5625 173.316406 C 306.421875 173.316406 306.421875 179.300781 302.5625 179.300781 C 301.785156 179.300781 301.109375 179.277344 300.375 179.492188 C 296.652344 180.542969 295.085938 174.773438 298.785156 173.722656 C 300.015625 173.363281 301.300781 173.316406 302.5625 173.316406 " fill-opacity="1" fill-rule="nonzero"/><path fill="#000000" d="M 290.007812 248.769531 C 294.792969 248.769531 294.792969 255.949219 290.007812 255.949219 L 287.605469 255.949219 C 285.214844 255.949219 285.214844 248.769531 287.605469 248.769531 C 290.007812 248.769531 290.007812 248.769531 290.007812 248.769531 " fill-opacity="1" fill-rule="nonzero"/><path fill="#000000" d="M 274.421875 253.679688 C 277.726562 251.613281 280.726562 256.816406 277.46875 258.828125 C 274.996094 260.363281 272.222656 261.027344 269.378906 261.027344 C 265.5 261.050781 265.5 255.066406 269.378906 255.046875 C 271.21875 255.046875 272.796875 254.683594 274.421875 253.679688 " fill-opacity="1" fill-rule="nonzero"/><path fill="#000000" d="M 268.660156 217.914062 C 269.425781 219.210938 269.066406 221.3125 267.585938 222.011719 C 266.289062 222.609375 265.117188 222.949219 263.683594 223.015625 C 262.058594 223.117188 260.695312 221.582031 260.695312 220.023438 C 260.695312 218.320312 262.058594 217.121094 263.683594 217.03125 C 263.921875 217.007812 264.429688 216.90625 264.5625 216.839844 C 266.054688 216.164062 267.777344 216.398438 268.660156 217.914062 " fill-opacity="1" fill-rule="nonzero"/><path fill="#000000" d="M 266.988281 184.6875 C 270.835938 184.640625 270.835938 190.636719 266.988281 190.679688 C 265.332031 190.703125 263.707031 190.941406 262.082031 191.179688 C 260.480469 191.394531 258.878906 190.792969 258.394531 189.078125 C 258.011719 187.65625 258.878906 185.625 260.503906 185.386719 C 262.660156 185.09375 264.8125 184.710938 266.988281 184.6875 " fill-opacity="1" fill-rule="nonzero"/><path fill="#000000" d="M 264.371094 203.609375 C 267.734375 201.9375 270.644531 207.019531 267.292969 208.835938 C 265.714844 209.695312 264.203125 209.582031 262.488281 209.523438 C 258.632812 209.457031 258.632812 203.472656 262.488281 203.539062 C 263.019531 203.5625 263.539062 203.640625 264.066406 203.640625 C 264.203125 203.640625 264.304688 203.609375 264.371094 203.609375 " fill-opacity="1" fill-rule="nonzero"/><path fill="#000000" d="M 264.28125 236.789062 C 265.90625 236.722656 267.269531 238.199219 267.269531 239.78125 C 267.269531 241.484375 265.90625 242.707031 264.28125 242.773438 C 263.367188 242.828125 262.488281 243.042969 261.574219 243.066406 C 259.953125 243.15625 258.609375 241.65625 258.609375 240.097656 C 258.609375 238.390625 259.953125 237.171875 261.574219 237.082031 C 262.488281 237.050781 263.367188 236.835938 264.28125 236.789062 " fill-opacity="1" fill-rule="nonzero"/><path fill="#000000" d="M 260.785156 257.84375 C 264.472656 256.648438 266.03125 262.441406 262.386719 263.636719 C 261.644531 263.851562 260.910156 263.851562 260.144531 263.886719 C 259.65625 263.90625 259.332031 264.097656 258.855469 264.191406 C 257.3125 264.449219 255.980469 265.105469 254.402344 265.25 C 252.789062 265.363281 251.4375 263.761719 251.4375 262.226562 C 251.4375 260.5 252.789062 259.378906 254.402344 259.257812 C 254.785156 259.210938 255.40625 258.851562 255.710938 258.757812 C 256.363281 258.589844 257.074219 258.546875 257.695312 258.296875 C 258.351562 258.058594 259.039062 257.933594 259.714844 257.914062 C 259.996094 257.890625 260.289062 257.890625 260.570312 257.890625 C 261 257.914062 261.078125 257.890625 260.785156 257.84375 " fill-opacity="1" fill-rule="nonzero"/><path fill="#000000" d="M 252.011719 218.828125 C 252.125 214.964844 258.113281 214.964844 257.988281 218.828125 C 257.964844 219.921875 257.71875 221.007812 257.695312 222.125 C 257.582031 225.960938 251.605469 225.984375 251.71875 222.125 C 251.738281 221.007812 251.988281 219.921875 252.011719 218.828125 " fill-opacity="1" fill-rule="nonzero"/><path fill="#000000" d="M 257.988281 198.179688 C 258.15625 199.78125 256.535156 201.148438 255.023438 201.148438 C 253.273438 201.148438 252.179688 199.78125 252.011719 198.179688 C 252.011719 197.984375 251.378906 197.21875 251.242188 196.980469 C 250.332031 195.617188 250.949219 193.671875 252.292969 192.882812 C 253.78125 192.015625 255.496094 192.589844 256.386719 193.957031 C 257.265625 195.300781 257.84375 196.550781 257.988281 198.179688 " fill-opacity="1" fill-rule="nonzero"/><path fill="#000000" d="M 256.5 236.789062 L 256.5 239.183594 C 256.5 243.96875 251.71875 243.96875 251.71875 239.183594 L 251.71875 236.789062 C 251.71875 232.003906 256.5 232.003906 256.5 236.789062 " fill-opacity="1" fill-rule="nonzero"/><path fill="#000000" d="M 225.390625 243.371094 C 227.015625 243.234375 228.394531 244.839844 228.394531 246.375 C 228.394531 248.125 227.015625 249.21875 225.390625 249.367188 C 225.109375 249.390625 224.152344 249.625 223.597656 249.671875 C 221.976562 249.796875 220.609375 248.191406 220.609375 246.65625 C 220.609375 244.929688 221.976562 243.8125 223.597656 243.6875 C 223.890625 243.664062 224.839844 243.429688 225.390625 243.371094 " fill-opacity="1" fill-rule="nonzero"/><path fill="#000000" d="M 225.347656 208.667969 C 226.351562 213.148438 226.882812 217.628906 226.882812 222.417969 C 226.882812 227.203125 220.890625 227.203125 220.890625 222.417969 C 220.890625 217.628906 220.484375 214.175781 219.582031 210.269531 C 218.523438 205.675781 219.4375 201.507812 215.792969 197.882812 C 213.066406 195.164062 217.304688 190.851562 220.035156 193.570312 C 224.75 198.289062 224.003906 202.660156 225.347656 208.667969 " fill-opacity="1" fill-rule="nonzero"/><path fill="#000000" d="M 154.628906 154.292969 C 154.652344 154.292969 154.707031 154.273438 154.730469 154.273438 C 154.683594 154.316406 154.683594 154.382812 154.652344 154.382812 C 154.652344 154.382812 154.628906 154.363281 154.628906 154.292969 " fill-opacity="1" fill-rule="nonzero"/><path fill="#000000" d="M 68.320312 206.011719 C 68.175781 205.992188 68.007812 205.933594 67.859375 205.910156 C 57.289062 203.835938 46.304688 199.035156 35.511719 198.777344 C 32.636719 203.992188 35.273438 235.164062 35.75 239.183594 C 36.628906 246.441406 35.75 253.171875 35.75 260.453125 C 35.75 262.136719 35.917969 263.523438 36.175781 264.699219 C 41.828125 263.761719 46.949219 260.746094 52.328125 258.972656 C 56.738281 257.527344 60.605469 254.730469 65.085938 253.65625 C 63.890625 248.214844 66.257812 240.164062 66.257812 235.738281 C 66.257812 226.367188 68.050781 208.621094 68.320312 206.011719 Z M 80.019531 208.113281 C 78.078125 207.761719 76.160156 207.425781 74.277344 207.085938 C 73.679688 215.925781 69.347656 252.808594 72.4375 253.363281 C 73.871094 253.621094 75.304688 253.9375 76.714844 254.230469 C 76.667969 245.371094 76.238281 237.410156 77.433594 229.101562 C 78.394531 222.507812 80.019531 215.28125 80.019531 208.113281 Z M 97.511719 259.277344 C 96.65625 258.082031 95.976562 256.714844 95.660156 254.945312 C 94.839844 249.75 93.519531 244.546875 92.390625 239.375 C 90.519531 230.828125 90.191406 219.257812 94.476562 211.230469 C 91.667969 210.460938 88.828125 209.816406 85.972656 209.242188 C 85.816406 214.085938 84.710938 221.3125 83.796875 226.796875 C 82.363281 235.660156 82.644531 252.789062 82.703125 255.542969 C 87.675781 256.695312 92.605469 257.957031 97.511719 259.277344 Z M 111.914062 294.085938 C 120.632812 296.242188 120.53125 292.335938 120.101562 285.289062 C 119.808594 280.503906 119.832031 275.785156 120.082031 271.042969 C 111.800781 269.339844 104.085938 267.621094 95.976562 264.867188 C 89.875 262.800781 83.132812 261.503906 76.835938 260.113281 C 74.707031 259.640625 71.546875 259.574219 69.15625 258.679688 C 68.816406 258.894531 68.433594 259.0625 67.960938 259.144531 C 64.984375 259.617188 62.976562 261.152344 60.492188 262.6875 C 57.808594 264.335938 53.90625 264.675781 51.007812 266.007812 C 47.523438 267.667969 43.664062 269.125 39.796875 270.039062 C 42.347656 271.597656 45.820312 271.957031 49.238281 273.3125 C 62.378906 278.539062 75.394531 282.761719 89.042969 286.417969 C 96.867188 288.507812 103.996094 292.121094 111.914062 294.085938 Z M 120.703125 262.226562 C 120.894531 260.304688 120.792969 258.25 120.746094 256.164062 C 113.6875 253.464844 106.773438 246.996094 105.238281 239.375 C 104.109375 233.695312 105.238281 228.933594 106.367188 223.355469 C 106.792969 221.242188 107.179688 218.703125 108.160156 216.59375 C 105.667969 215.203125 103.015625 214.050781 100.265625 213.046875 C 95.910156 220.285156 97.195312 233.355469 98.898438 241.226562 C 99.621094 244.523438 100.578125 247.976562 101.097656 251.308594 C 101.867188 255.972656 105.914062 258.679688 109.050781 261.921875 C 109.21875 262.078125 109.332031 262.246094 109.457031 262.417969 C 113.089844 263.355469 116.777344 264.210938 120.464844 264.980469 C 120.554688 264.078125 120.601562 263.164062 120.703125 262.226562 Z M 121.105469 249.175781 C 123.136719 239.667969 122.089844 231.664062 120.195312 222.316406 C 119.640625 219.492188 116.496094 219.132812 113.742188 218.726562 C 110.980469 222.351562 109.953125 234.585938 111.035156 237.792969 C 112.613281 242.558594 116.371094 247.402344 121.015625 249.796875 C 121.027344 249.582031 121.0625 249.367188 121.105469 249.175781 Z M 124.605469 216.398438 C 128.28125 219.574219 128.527344 231.234375 128.472656 235.59375 C 128.382812 243.640625 128.019531 252.402344 126.949219 260.304688 C 125.585938 270.398438 126.082031 280.265625 126.082031 290.394531 C 126.082031 293.082031 126.375 297.867188 123.589844 299.59375 C 118.265625 302.925781 111.363281 300.148438 105.835938 298.65625 C 95.640625 295.925781 85.859375 291.691406 75.640625 288.789062 C 66.042969 286.035156 57.121094 282.015625 47.660156 279.09375 C 41.511719 277.195312 36.246094 276.484375 31.800781 271.617188 C 27.425781 266.855469 29.769531 258.894531 29.769531 253.273438 C 29.769531 243.6875 29.070312 234.160156 29.171875 224.527344 C 29.261719 215.585938 23.136719 195.492188 34.644531 192.285156 C 35.792969 191.96875 36.730469 192.285156 37.371094 192.90625 C 43.789062 193.480469 49.339844 196.023438 55.722656 197.195312 C 65.636719 198.992188 75.347656 201.890625 85.261719 203.664062 C 93.542969 205.144531 102.699219 205.933594 109.953125 210.5625 C 114.859375 213.679688 120.171875 212.59375 124.605469 216.398438 " fill-opacity="1" fill-rule="nonzero"/><defs>
<linearGradient id="paint0_linear" x1="2.12767" y1="1" x2="30.7018" y2="17.5237" gradientUnits="userSpaceOnUse">
<stop offset="0.259336" stop-color="#FFDB6E"/>
<stop offset="1" stop-color="#FFBC5E"/>
</linearGradient>
<linearGradient id="paint1_linear" x1="1.59976" y1="8.08974e-07" x2="31.8368" y2="17.6727" gradientUnits="userSpaceOnUse">
<stop offset="0.259336" stop-color="#FFDB6E"/>
<stop offset="1" stop-color="#FFBC5E"/>
</linearGradient>
</defs></svg>
