<svg xmlns="http://www.w3.org/2000/svg" xmlns:xlink="http://www.w3.org/1999/xlink" width="500" zoomAndPan="magnify" viewBox="0 0 375 374.999991" height="500" preserveAspectRatio="xMidYMid meet" version="1.0"><defs><clipPath id="53ecb2e69e"><path d="M 37.5 51 L 337.5 51 L 337.5 323.863281 L 37.5 323.863281 Z M 37.5 51 " clip-rule="nonzero"/></clipPath></defs><g clip-path="url(#53ecb2e69e)"><path fill="#000000" d="M 316.007812 51.664062 L 58.660156 51.664062 C 57.964844 51.664062 57.269531 51.699219 56.574219 51.769531 C 55.882812 51.835938 55.195312 51.9375 54.511719 52.074219 C 53.828125 52.210938 53.152344 52.382812 52.484375 52.585938 C 51.820312 52.785156 51.164062 53.019531 50.519531 53.289062 C 49.875 53.554688 49.246094 53.851562 48.632812 54.179688 C 48.019531 54.507812 47.421875 54.867188 46.84375 55.253906 C 46.265625 55.640625 45.703125 56.054688 45.167969 56.496094 C 44.628906 56.9375 44.113281 57.40625 43.621094 57.898438 C 43.125 58.390625 42.660156 58.902344 42.21875 59.441406 C 41.773438 59.980469 41.359375 60.539062 40.972656 61.117188 C 40.585938 61.695312 40.226562 62.292969 39.898438 62.90625 C 39.570312 63.519531 39.273438 64.148438 39.007812 64.789062 C 38.738281 65.433594 38.503906 66.089844 38.300781 66.753906 C 38.097656 67.421875 37.929688 68.09375 37.792969 68.777344 C 37.65625 69.460938 37.554688 70.148438 37.484375 70.839844 C 37.414062 71.53125 37.378906 72.226562 37.378906 72.921875 L 37.378906 237.457031 C 37.378906 238.152344 37.414062 238.847656 37.484375 239.539062 C 37.554688 240.230469 37.65625 240.917969 37.792969 241.601562 C 37.929688 242.285156 38.097656 242.957031 38.300781 243.625 C 38.503906 244.289062 38.738281 244.945312 39.007812 245.585938 C 39.273438 246.230469 39.570312 246.859375 39.902344 247.472656 C 40.230469 248.085938 40.585938 248.683594 40.972656 249.261719 C 41.363281 249.839844 41.777344 250.398438 42.21875 250.933594 C 42.660156 251.472656 43.128906 251.988281 43.621094 252.480469 C 44.113281 252.972656 44.628906 253.4375 45.167969 253.878906 C 45.707031 254.320312 46.265625 254.738281 46.84375 255.125 C 47.421875 255.511719 48.019531 255.867188 48.632812 256.195312 C 49.25 256.523438 49.878906 256.820312 50.519531 257.089844 C 51.164062 257.355469 51.820312 257.589844 52.484375 257.792969 C 53.152344 257.996094 53.828125 258.164062 54.511719 258.300781 C 55.195312 258.4375 55.882812 258.539062 56.574219 258.609375 C 57.269531 258.675781 57.964844 258.710938 58.660156 258.710938 L 149.679688 258.710938 L 138.40625 295.027344 L 137.679688 295.027344 C 136.75 295.027344 135.824219 295.117188 134.910156 295.300781 C 133.996094 295.480469 133.109375 295.75 132.246094 296.105469 C 131.386719 296.464844 130.566406 296.898438 129.792969 297.417969 C 129.015625 297.933594 128.300781 298.523438 127.640625 299.183594 C 126.980469 299.839844 126.394531 300.558594 125.875 301.332031 C 125.355469 302.105469 124.917969 302.921875 124.5625 303.785156 C 124.207031 304.644531 123.9375 305.53125 123.753906 306.445312 C 123.574219 307.359375 123.480469 308.28125 123.480469 309.210938 C 123.480469 310.144531 123.574219 311.066406 123.753906 311.980469 C 123.9375 312.894531 124.207031 313.78125 124.5625 314.640625 C 124.917969 315.5 125.355469 316.320312 125.875 317.09375 C 126.394531 317.867188 126.980469 318.582031 127.640625 319.242188 C 128.300781 319.902344 129.015625 320.488281 129.792969 321.007812 C 130.566406 321.523438 131.386719 321.960938 132.246094 322.316406 C 133.109375 322.675781 133.996094 322.941406 134.910156 323.125 C 135.824219 323.304688 136.75 323.398438 137.679688 323.398438 L 236.984375 323.398438 C 237.917969 323.398438 238.839844 323.304688 239.753906 323.125 C 240.667969 322.941406 241.558594 322.675781 242.417969 322.316406 C 243.28125 321.960938 244.097656 321.523438 244.875 321.007812 C 245.648438 320.488281 246.367188 319.902344 247.023438 319.242188 C 247.683594 318.582031 248.273438 317.867188 248.792969 317.09375 C 249.308594 316.320312 249.746094 315.5 250.101562 314.640625 C 250.460938 313.78125 250.730469 312.894531 250.910156 311.980469 C 251.09375 311.066406 251.183594 310.144531 251.183594 309.210938 C 251.183594 308.28125 251.09375 307.359375 250.910156 306.445312 C 250.730469 305.53125 250.460938 304.644531 250.101562 303.785156 C 249.746094 302.921875 249.308594 302.105469 248.792969 301.332031 C 248.273438 300.558594 247.683594 299.839844 247.023438 299.183594 C 246.367188 298.523438 245.648438 297.933594 244.875 297.417969 C 244.097656 296.898438 243.28125 296.464844 242.417969 296.105469 C 241.558594 295.75 240.667969 295.480469 239.753906 295.300781 C 238.839844 295.117188 237.917969 295.027344 236.984375 295.027344 L 236.261719 295.027344 L 224.984375 258.710938 L 316.007812 258.710938 C 316.703125 258.710938 317.398438 258.675781 318.089844 258.609375 C 318.785156 258.539062 319.472656 258.4375 320.15625 258.300781 C 320.839844 258.164062 321.515625 257.996094 322.179688 257.792969 C 322.847656 257.589844 323.5 257.355469 324.144531 257.089844 C 324.789062 256.820312 325.417969 256.523438 326.03125 256.195312 C 326.644531 255.867188 327.242188 255.511719 327.824219 255.125 C 328.402344 254.738281 328.960938 254.320312 329.5 253.878906 C 330.039062 253.4375 330.554688 252.972656 331.046875 252.480469 C 331.539062 251.988281 332.003906 251.472656 332.449219 250.933594 C 332.890625 250.398438 333.304688 249.839844 333.691406 249.261719 C 334.078125 248.683594 334.4375 248.085938 334.765625 247.472656 C 335.09375 246.859375 335.390625 246.230469 335.660156 245.585938 C 335.925781 244.945312 336.160156 244.289062 336.363281 243.625 C 336.566406 242.957031 336.738281 242.285156 336.875 241.601562 C 337.007812 240.917969 337.113281 240.230469 337.179688 239.539062 C 337.25 238.847656 337.285156 238.152344 337.285156 237.457031 L 337.285156 72.921875 C 337.285156 72.226562 337.25 71.53125 337.183594 70.839844 C 337.113281 70.148438 337.011719 69.460938 336.875 68.777344 C 336.738281 68.09375 336.566406 67.421875 336.363281 66.753906 C 336.160156 66.089844 335.925781 65.433594 335.660156 64.789062 C 335.394531 64.148438 335.09375 63.519531 334.765625 62.90625 C 334.4375 62.292969 334.078125 61.695312 333.691406 61.117188 C 333.304688 60.539062 332.890625 59.980469 332.449219 59.441406 C 332.007812 58.902344 331.539062 58.390625 331.046875 57.898438 C 330.554688 57.40625 330.039062 56.9375 329.5 56.496094 C 328.960938 56.054688 328.402344 55.640625 327.824219 55.253906 C 327.242188 54.867188 326.648438 54.507812 326.03125 54.179688 C 325.417969 53.851562 324.789062 53.554688 324.144531 53.289062 C 323.503906 53.019531 322.847656 52.785156 322.179688 52.585938 C 321.515625 52.382812 320.839844 52.210938 320.15625 52.074219 C 319.472656 51.9375 318.785156 51.835938 318.089844 51.769531 C 317.398438 51.699219 316.703125 51.664062 316.007812 51.664062 Z M 58.660156 58.332031 L 316.007812 58.332031 C 316.964844 58.332031 317.914062 58.425781 318.855469 58.613281 C 319.792969 58.800781 320.707031 59.078125 321.59375 59.445312 C 322.480469 59.8125 323.320312 60.261719 324.117188 60.796875 C 324.914062 61.328125 325.652344 61.933594 326.328125 62.609375 C 327.007812 63.285156 327.613281 64.023438 328.144531 64.820312 C 328.679688 65.617188 329.128906 66.457031 329.496094 67.339844 C 329.863281 68.226562 330.140625 69.136719 330.328125 70.078125 C 330.515625 71.015625 330.609375 71.964844 330.613281 72.921875 L 330.613281 210.695312 L 44.054688 210.695312 L 44.054688 72.921875 C 44.054688 71.964844 44.148438 71.015625 44.335938 70.078125 C 44.523438 69.136719 44.804688 68.226562 45.171875 67.339844 C 45.539062 66.457031 45.988281 65.617188 46.519531 64.820312 C 47.054688 64.023438 47.660156 63.285156 48.335938 62.609375 C 49.015625 61.933594 49.753906 61.328125 50.550781 60.796875 C 51.347656 60.261719 52.1875 59.8125 53.074219 59.445312 C 53.957031 59.078125 54.871094 58.800781 55.8125 58.613281 C 56.753906 58.425781 57.703125 58.332031 58.660156 58.332031 Z M 244.511719 309.210938 C 244.507812 309.707031 244.460938 310.195312 244.363281 310.679688 C 244.269531 311.164062 244.125 311.632812 243.933594 312.089844 C 243.746094 312.542969 243.515625 312.976562 243.238281 313.386719 C 242.964844 313.796875 242.652344 314.175781 242.304688 314.527344 C 241.953125 314.875 241.574219 315.1875 241.164062 315.460938 C 240.753906 315.734375 240.320312 315.964844 239.863281 316.15625 C 239.40625 316.34375 238.9375 316.488281 238.453125 316.585938 C 237.96875 316.679688 237.480469 316.730469 236.984375 316.730469 L 137.679688 316.730469 C 137.1875 316.730469 136.699219 316.679688 136.214844 316.585938 C 135.730469 316.488281 135.257812 316.347656 134.800781 316.15625 C 134.34375 315.96875 133.910156 315.738281 133.5 315.460938 C 133.089844 315.1875 132.710938 314.875 132.359375 314.527344 C 132.011719 314.179688 131.699219 313.800781 131.425781 313.390625 C 131.148438 312.976562 130.917969 312.546875 130.730469 312.089844 C 130.539062 311.632812 130.398438 311.164062 130.300781 310.679688 C 130.203125 310.195312 130.15625 309.707031 130.15625 309.210938 C 130.15625 308.71875 130.203125 308.230469 130.300781 307.746094 C 130.398438 307.261719 130.539062 306.792969 130.730469 306.335938 C 130.917969 305.878906 131.148438 305.445312 131.425781 305.035156 C 131.699219 304.625 132.011719 304.246094 132.359375 303.894531 C 132.710938 303.546875 133.089844 303.234375 133.5 302.960938 C 133.910156 302.6875 134.34375 302.457031 134.800781 302.265625 C 135.257812 302.078125 135.730469 301.933594 136.214844 301.839844 C 136.699219 301.742188 137.1875 301.695312 137.679688 301.695312 L 236.984375 301.695312 C 237.480469 301.695312 237.96875 301.742188 238.453125 301.839844 C 238.9375 301.9375 239.40625 302.078125 239.863281 302.269531 C 240.320312 302.457031 240.753906 302.6875 241.164062 302.964844 C 241.574219 303.238281 241.953125 303.550781 242.304688 303.898438 C 242.652344 304.246094 242.964844 304.625 243.238281 305.039062 C 243.515625 305.449219 243.746094 305.878906 243.933594 306.335938 C 244.125 306.792969 244.269531 307.261719 244.363281 307.746094 C 244.460938 308.230469 244.507812 308.71875 244.511719 309.210938 Z M 229.273438 295.027344 L 145.394531 295.027344 L 156.671875 258.710938 L 217.992188 258.710938 Z M 316.007812 252.046875 L 58.660156 252.046875 C 57.703125 252.042969 56.753906 251.949219 55.8125 251.761719 C 54.871094 251.574219 53.960938 251.296875 53.074219 250.929688 C 52.1875 250.5625 51.347656 250.113281 50.550781 249.582031 C 49.753906 249.050781 49.015625 248.445312 48.339844 247.765625 C 47.660156 247.089844 47.054688 246.355469 46.523438 245.558594 C 45.988281 244.761719 45.539062 243.921875 45.171875 243.035156 C 44.804688 242.152344 44.527344 241.242188 44.339844 240.300781 C 44.148438 239.363281 44.054688 238.414062 44.054688 237.457031 L 44.054688 217.363281 L 330.613281 217.363281 L 330.613281 237.457031 C 330.609375 238.414062 330.515625 239.363281 330.328125 240.300781 C 330.140625 241.242188 329.863281 242.152344 329.496094 243.035156 C 329.128906 243.921875 328.675781 244.761719 328.144531 245.558594 C 327.613281 246.355469 327.007812 247.089844 326.328125 247.765625 C 325.648438 248.445312 324.914062 249.050781 324.117188 249.582031 C 323.320312 250.113281 322.476562 250.5625 321.59375 250.929688 C 320.707031 251.296875 319.792969 251.574219 318.855469 251.761719 C 317.914062 251.949219 316.964844 252.042969 316.007812 252.046875 Z M 62.226562 222.132812 C 61.402344 222.132812 60.582031 222.210938 59.773438 222.371094 C 58.960938 222.535156 58.175781 222.773438 57.410156 223.089844 C 56.648438 223.402344 55.921875 223.792969 55.234375 224.25 C 54.546875 224.707031 53.910156 225.230469 53.328125 225.8125 C 52.742188 226.398438 52.222656 227.03125 51.761719 227.71875 C 51.300781 228.40625 50.914062 229.132812 50.597656 229.894531 C 50.28125 230.65625 50.042969 231.441406 49.882812 232.253906 C 49.722656 233.0625 49.640625 233.878906 49.640625 234.707031 C 49.640625 235.53125 49.71875 236.347656 49.882812 237.160156 C 50.042969 237.96875 50.28125 238.753906 50.597656 239.519531 C 50.914062 240.28125 51.300781 241.003906 51.761719 241.691406 C 52.21875 242.378906 52.742188 243.015625 53.328125 243.597656 C 53.910156 244.183594 54.546875 244.703125 55.234375 245.160156 C 55.921875 245.621094 56.648438 246.007812 57.410156 246.324219 C 58.175781 246.640625 58.960938 246.878906 59.773438 247.039062 C 60.582031 247.199219 61.402344 247.28125 62.226562 247.28125 C 63.054688 247.28125 63.871094 247.199219 64.683594 247.039062 C 65.496094 246.878906 66.28125 246.640625 67.046875 246.324219 C 67.808594 246.007812 68.535156 245.621094 69.222656 245.160156 C 69.910156 244.703125 70.546875 244.179688 71.128906 243.597656 C 71.714844 243.011719 72.234375 242.375 72.695312 241.691406 C 73.152344 241.003906 73.542969 240.277344 73.859375 239.515625 C 74.171875 238.753906 74.414062 237.964844 74.574219 237.15625 C 74.734375 236.347656 74.816406 235.527344 74.816406 234.703125 C 74.8125 233.878906 74.730469 233.058594 74.570312 232.25 C 74.40625 231.441406 74.167969 230.65625 73.851562 229.894531 C 73.535156 229.132812 73.148438 228.40625 72.6875 227.722656 C 72.230469 227.035156 71.707031 226.402344 71.121094 225.816406 C 70.539062 225.234375 69.902344 224.710938 69.214844 224.253906 C 68.53125 223.796875 67.804688 223.40625 67.042969 223.089844 C 66.277344 222.777344 65.492188 222.535156 64.683594 222.375 C 63.871094 222.214844 63.054688 222.132812 62.226562 222.132812 Z M 62.226562 240.609375 C 61.839844 240.609375 61.453125 240.574219 61.074219 240.496094 C 60.691406 240.421875 60.324219 240.308594 59.964844 240.160156 C 59.605469 240.011719 59.265625 239.832031 58.941406 239.613281 C 58.621094 239.398438 58.320312 239.152344 58.046875 238.878906 C 57.773438 238.605469 57.527344 238.308594 57.3125 237.984375 C 57.09375 237.664062 56.914062 237.320312 56.765625 236.964844 C 56.617188 236.605469 56.503906 236.234375 56.429688 235.855469 C 56.351562 235.476562 56.3125 235.089844 56.3125 234.703125 C 56.3125 234.316406 56.351562 233.929688 56.429688 233.550781 C 56.503906 233.171875 56.617188 232.800781 56.765625 232.441406 C 56.914062 232.082031 57.09375 231.742188 57.3125 231.421875 C 57.527344 231.097656 57.773438 230.800781 58.046875 230.527344 C 58.320312 230.25 58.621094 230.007812 58.941406 229.792969 C 59.265625 229.574219 59.605469 229.394531 59.964844 229.246094 C 60.324219 229.097656 60.691406 228.984375 61.074219 228.910156 C 61.453125 228.832031 61.839844 228.796875 62.226562 228.796875 C 62.617188 228.796875 63 228.832031 63.382812 228.910156 C 63.761719 228.984375 64.132812 229.097656 64.492188 229.246094 C 64.847656 229.394531 65.191406 229.574219 65.511719 229.792969 C 65.835938 230.007812 66.132812 230.25 66.410156 230.527344 C 66.683594 230.800781 66.929688 231.097656 67.144531 231.421875 C 67.359375 231.742188 67.542969 232.082031 67.691406 232.441406 C 67.839844 232.800781 67.953125 233.171875 68.027344 233.550781 C 68.101562 233.929688 68.140625 234.316406 68.140625 234.703125 C 68.140625 235.089844 68.101562 235.476562 68.027344 235.855469 C 67.949219 236.234375 67.835938 236.605469 67.6875 236.960938 C 67.539062 237.320312 67.359375 237.660156 67.140625 237.984375 C 66.925781 238.304688 66.679688 238.605469 66.40625 238.878906 C 66.132812 239.152344 65.832031 239.398438 65.511719 239.613281 C 65.1875 239.828125 64.847656 240.011719 64.488281 240.160156 C 64.128906 240.308594 63.761719 240.417969 63.378906 240.496094 C 63 240.570312 62.617188 240.609375 62.226562 240.609375 Z M 112.136719 179.457031 L 132.160156 179.457031 C 132.601562 179.457031 133.027344 179.371094 133.433594 179.203125 C 133.84375 179.03125 134.207031 178.792969 134.519531 178.480469 C 134.832031 178.167969 135.070312 177.804688 135.242188 177.398438 C 135.410156 176.988281 135.496094 176.5625 135.496094 176.121094 L 135.496094 156.121094 C 135.496094 155.675781 135.410156 155.253906 135.242188 154.84375 C 135.070312 154.433594 134.832031 154.074219 134.519531 153.761719 C 134.207031 153.449219 133.84375 153.207031 133.433594 153.039062 C 133.027344 152.871094 132.601562 152.785156 132.160156 152.785156 L 126.949219 152.785156 C 127.570312 149.921875 128.394531 147.117188 129.417969 144.371094 C 130.445312 141.625 131.65625 138.96875 133.0625 136.394531 C 134.46875 133.824219 136.050781 131.363281 137.808594 129.019531 C 139.566406 126.671875 141.480469 124.464844 143.554688 122.390625 C 145.628906 120.320312 147.84375 118.40625 150.191406 116.652344 C 152.539062 114.894531 155 113.316406 157.578125 111.914062 C 160.152344 110.511719 162.8125 109.296875 165.5625 108.273438 C 168.3125 107.253906 171.117188 106.429688 173.984375 105.808594 L 173.984375 111 C 173.984375 111.441406 174.070312 111.867188 174.238281 112.277344 C 174.410156 112.683594 174.648438 113.046875 174.960938 113.359375 C 175.273438 113.671875 175.636719 113.910156 176.046875 114.082031 C 176.453125 114.25 176.878906 114.335938 177.320312 114.335938 L 197.34375 114.335938 C 197.785156 114.335938 198.210938 114.25 198.621094 114.082031 C 199.03125 113.910156 199.390625 113.671875 199.703125 113.359375 C 200.015625 113.046875 200.257812 112.683594 200.425781 112.277344 C 200.597656 111.867188 200.679688 111.441406 200.679688 111 L 200.679688 105.808594 C 203.550781 106.429688 206.359375 107.253906 209.109375 108.273438 C 211.859375 109.296875 214.523438 110.511719 217.101562 111.914062 C 219.675781 113.320312 222.140625 114.898438 224.488281 116.65625 C 226.839844 118.414062 229.050781 120.328125 231.125 122.402344 C 233.203125 124.472656 235.117188 126.683594 236.875 129.03125 C 238.636719 131.378906 240.21875 133.839844 241.621094 136.414062 C 243.027344 138.988281 244.242188 141.648438 245.265625 144.394531 C 246.289062 147.144531 247.113281 149.949219 247.734375 152.816406 L 242.519531 152.816406 C 242.078125 152.816406 241.652344 152.902344 241.242188 153.070312 C 240.835938 153.238281 240.472656 153.480469 240.160156 153.792969 C 239.847656 154.105469 239.609375 154.464844 239.4375 154.875 C 239.269531 155.28125 239.183594 155.707031 239.183594 156.148438 L 239.183594 176.152344 C 239.183594 176.59375 239.269531 177.019531 239.4375 177.429688 C 239.609375 177.835938 239.847656 178.195312 240.160156 178.507812 C 240.472656 178.820312 240.835938 179.0625 241.242188 179.230469 C 241.652344 179.402344 242.078125 179.484375 242.519531 179.484375 L 262.542969 179.484375 C 262.984375 179.484375 263.410156 179.402344 263.820312 179.230469 C 264.230469 179.0625 264.589844 178.820312 264.902344 178.507812 C 265.214844 178.195312 265.457031 177.835938 265.625 177.429688 C 265.796875 177.019531 265.878906 176.59375 265.878906 176.152344 L 265.878906 156.148438 C 265.878906 155.707031 265.796875 155.28125 265.625 154.875 C 265.457031 154.464844 265.214844 154.105469 264.902344 153.792969 C 264.589844 153.480469 264.230469 153.238281 263.820312 153.070312 C 263.410156 152.902344 262.984375 152.816406 262.542969 152.816406 L 254.535156 152.816406 C 254.027344 150.207031 253.367188 147.640625 252.558594 145.109375 C 251.75 142.578125 250.796875 140.105469 249.699219 137.6875 C 248.597656 135.269531 247.363281 132.921875 245.988281 130.648438 C 244.613281 128.375 243.113281 126.1875 241.480469 124.089844 C 239.851562 121.992188 238.105469 119.996094 236.238281 118.101562 C 234.375 116.207031 232.40625 114.429688 230.335938 112.765625 C 228.261719 111.101562 226.097656 109.566406 223.84375 108.15625 C 221.59375 106.746094 219.265625 105.472656 216.863281 104.332031 L 239.683594 104.332031 C 239.820312 104.851562 239.984375 105.359375 240.179688 105.855469 C 240.375 106.355469 240.597656 106.839844 240.851562 107.308594 C 241.105469 107.78125 241.386719 108.234375 241.695312 108.671875 C 242.003906 109.109375 242.335938 109.527344 242.695312 109.921875 C 243.054688 110.320312 243.4375 110.695312 243.839844 111.046875 C 244.246094 111.394531 244.667969 111.722656 245.109375 112.023438 C 245.554688 112.320312 246.015625 112.59375 246.488281 112.839844 C 246.964844 113.082031 247.453125 113.300781 247.957031 113.484375 C 248.457031 113.671875 248.96875 113.824219 249.492188 113.949219 C 250.011719 114.074219 250.539062 114.167969 251.070312 114.226562 C 251.601562 114.289062 252.136719 114.316406 252.671875 114.3125 C 253.207031 114.3125 253.738281 114.277344 254.269531 114.207031 C 254.800781 114.140625 255.328125 114.042969 255.84375 113.910156 C 256.363281 113.78125 256.875 113.617188 257.375 113.425781 C 257.875 113.234375 258.359375 113.011719 258.832031 112.761719 C 259.304688 112.511719 259.761719 112.234375 260.199219 111.929688 C 260.640625 111.625 261.058594 111.292969 261.460938 110.9375 C 261.859375 110.582031 262.234375 110.203125 262.589844 109.800781 C 262.945312 109.398438 263.273438 108.976562 263.574219 108.539062 C 263.878906 108.097656 264.152344 107.640625 264.402344 107.164062 C 264.648438 106.691406 264.867188 106.203125 265.058594 105.703125 C 265.246094 105.203125 265.40625 104.691406 265.53125 104.171875 C 265.660156 103.65625 265.753906 103.128906 265.820312 102.597656 C 265.882812 102.066406 265.917969 101.535156 265.917969 101 C 265.917969 100.464844 265.882812 99.933594 265.820312 99.402344 C 265.753906 98.871094 265.660156 98.34375 265.53125 97.824219 C 265.40625 97.304688 265.246094 96.796875 265.058594 96.296875 C 264.867188 95.796875 264.648438 95.308594 264.402344 94.835938 C 264.152344 94.359375 263.878906 93.902344 263.574219 93.460938 C 263.273438 93.019531 262.945312 92.601562 262.589844 92.199219 C 262.234375 91.796875 261.859375 91.417969 261.460938 91.0625 C 261.058594 90.707031 260.640625 90.375 260.199219 90.070312 C 259.761719 89.765625 259.304688 89.488281 258.832031 89.234375 C 258.359375 88.984375 257.875 88.765625 257.375 88.574219 C 256.875 88.378906 256.363281 88.21875 255.84375 88.089844 C 255.328125 87.957031 254.800781 87.859375 254.269531 87.789062 C 253.738281 87.722656 253.207031 87.6875 252.671875 87.683594 C 252.136719 87.679688 251.601562 87.710938 251.070312 87.769531 C 250.539062 87.832031 250.011719 87.925781 249.492188 88.050781 C 248.96875 88.171875 248.457031 88.328125 247.957031 88.515625 C 247.453125 88.699219 246.964844 88.914062 246.488281 89.160156 C 246.015625 89.40625 245.554688 89.675781 245.109375 89.976562 C 244.667969 90.277344 244.246094 90.601562 243.839844 90.953125 C 243.4375 91.304688 243.054688 91.679688 242.695312 92.074219 C 242.335938 92.472656 242.003906 92.890625 241.695312 93.328125 C 241.386719 93.765625 241.105469 94.21875 240.851562 94.6875 C 240.597656 95.160156 240.375 95.644531 240.179688 96.140625 C 239.984375 96.640625 239.820312 97.148438 239.683594 97.664062 L 200.679688 97.664062 L 200.679688 91 C 200.679688 90.554688 200.597656 90.132812 200.425781 89.722656 C 200.257812 89.3125 200.015625 88.953125 199.703125 88.640625 C 199.390625 88.328125 199.03125 88.085938 198.621094 87.917969 C 198.210938 87.75 197.785156 87.664062 197.34375 87.664062 L 177.320312 87.664062 C 176.878906 87.664062 176.453125 87.75 176.046875 87.917969 C 175.636719 88.085938 175.273438 88.328125 174.960938 88.640625 C 174.648438 88.953125 174.410156 89.3125 174.238281 89.722656 C 174.070312 90.132812 173.984375 90.554688 173.984375 91 L 173.984375 97.664062 L 134.980469 97.664062 C 134.847656 97.148438 134.683594 96.636719 134.488281 96.140625 C 134.292969 95.640625 134.066406 95.15625 133.8125 94.683594 C 133.558594 94.210938 133.277344 93.757812 132.96875 93.320312 C 132.660156 92.882812 132.324219 92.464844 131.96875 92.066406 C 131.609375 91.667969 131.226562 91.292969 130.820312 90.941406 C 130.417969 90.589844 129.992188 90.261719 129.550781 89.960938 C 129.105469 89.664062 128.644531 89.390625 128.167969 89.144531 C 127.691406 88.898438 127.203125 88.683594 126.699219 88.496094 C 126.195312 88.308594 125.683594 88.15625 125.164062 88.03125 C 124.640625 87.90625 124.113281 87.8125 123.582031 87.75 C 123.046875 87.691406 122.515625 87.660156 121.976562 87.664062 C 121.441406 87.667969 120.90625 87.703125 120.375 87.769531 C 119.84375 87.839844 119.316406 87.9375 118.796875 88.066406 C 118.277344 88.199219 117.765625 88.359375 117.265625 88.554688 C 116.765625 88.746094 116.277344 88.964844 115.804688 89.21875 C 115.332031 89.46875 114.875 89.746094 114.433594 90.054688 C 113.996094 90.359375 113.574219 90.691406 113.171875 91.046875 C 112.773438 91.402344 112.394531 91.78125 112.042969 92.183594 C 111.6875 92.585938 111.359375 93.007812 111.054688 93.449219 C 110.75 93.890625 110.476562 94.347656 110.226562 94.824219 C 109.976562 95.300781 109.757812 95.785156 109.570312 96.289062 C 109.378906 96.789062 109.222656 97.300781 109.09375 97.820312 C 108.964844 98.339844 108.871094 98.867188 108.804688 99.398438 C 108.742188 99.929688 108.710938 100.464844 108.710938 101 C 108.710938 101.535156 108.742188 102.070312 108.804688 102.601562 C 108.871094 103.132812 108.964844 103.660156 109.09375 104.179688 C 109.222656 104.699219 109.378906 105.210938 109.570312 105.710938 C 109.757812 106.210938 109.976562 106.699219 110.226562 107.175781 C 110.476562 107.648438 110.75 108.109375 111.054688 108.550781 C 111.359375 108.992188 111.6875 109.414062 112.042969 109.816406 C 112.394531 110.214844 112.773438 110.597656 113.171875 110.953125 C 113.574219 111.308594 113.996094 111.640625 114.433594 111.945312 C 114.875 112.253906 115.332031 112.53125 115.804688 112.78125 C 116.277344 113.03125 116.765625 113.253906 117.265625 113.445312 C 117.765625 113.636719 118.277344 113.800781 118.796875 113.929688 C 119.316406 114.0625 119.84375 114.160156 120.375 114.226562 C 120.90625 114.296875 121.441406 114.332031 121.976562 114.335938 C 122.515625 114.335938 123.046875 114.308594 123.582031 114.246094 C 124.113281 114.1875 124.640625 114.09375 125.164062 113.96875 C 125.683594 113.84375 126.195312 113.6875 126.699219 113.503906 C 127.203125 113.316406 127.691406 113.101562 128.167969 112.855469 C 128.644531 112.609375 129.105469 112.335938 129.550781 112.035156 C 129.992188 111.734375 130.417969 111.410156 130.820312 111.058594 C 131.226562 110.707031 131.609375 110.332031 131.96875 109.933594 C 132.324219 109.535156 132.660156 109.117188 132.96875 108.679688 C 133.277344 108.242188 133.558594 107.789062 133.8125 107.316406 C 134.066406 106.84375 134.292969 106.359375 134.488281 105.859375 C 134.683594 105.359375 134.847656 104.851562 134.980469 104.332031 L 157.804688 104.332031 C 155.402344 105.472656 153.078125 106.746094 150.824219 108.15625 C 148.574219 109.566406 146.410156 111.101562 144.339844 112.765625 C 142.269531 114.429688 140.300781 116.207031 138.4375 118.101562 C 136.574219 119.992188 134.828125 121.988281 133.199219 124.085938 C 131.570312 126.183594 130.066406 128.367188 128.695312 130.640625 C 127.320312 132.914062 126.085938 135.257812 124.988281 137.675781 C 123.890625 140.09375 122.933594 142.566406 122.125 145.097656 C 121.316406 147.625 120.660156 150.191406 120.152344 152.800781 L 112.144531 152.800781 C 111.699219 152.800781 111.273438 152.882812 110.867188 153.054688 C 110.457031 153.222656 110.097656 153.464844 109.785156 153.777344 C 109.46875 154.089844 109.230469 154.449219 109.058594 154.855469 C 108.890625 155.265625 108.804688 155.691406 108.804688 156.132812 L 108.804688 176.136719 C 108.808594 176.574219 108.894531 177 109.0625 177.40625 C 109.234375 177.8125 109.472656 178.171875 109.785156 178.480469 C 110.097656 178.792969 110.457031 179.03125 110.863281 179.203125 C 111.273438 179.371094 111.695312 179.457031 112.136719 179.457031 Z M 259.191406 172.789062 L 245.84375 172.789062 L 245.84375 159.453125 L 259.191406 159.453125 Z M 252.539062 94.351562 C 252.976562 94.351562 253.40625 94.394531 253.835938 94.476562 C 254.265625 94.5625 254.679688 94.6875 255.085938 94.855469 C 255.488281 95.019531 255.871094 95.226562 256.234375 95.46875 C 256.597656 95.707031 256.933594 95.984375 257.246094 96.292969 C 257.554688 96.597656 257.828125 96.933594 258.074219 97.296875 C 258.316406 97.660156 258.523438 98.042969 258.691406 98.445312 C 258.859375 98.847656 258.984375 99.261719 259.070312 99.6875 C 259.15625 100.117188 259.203125 100.550781 259.203125 100.984375 C 259.203125 101.421875 259.164062 101.855469 259.078125 102.28125 C 258.996094 102.710938 258.871094 103.125 258.703125 103.527344 C 258.539062 103.933594 258.335938 104.316406 258.09375 104.679688 C 257.851562 105.042969 257.578125 105.378906 257.269531 105.6875 C 256.960938 106 256.625 106.273438 256.265625 106.519531 C 255.902344 106.761719 255.519531 106.96875 255.117188 107.136719 C 254.714844 107.304688 254.300781 107.433594 253.871094 107.519531 C 253.441406 107.605469 253.011719 107.652344 252.574219 107.652344 C 252.136719 107.65625 251.703125 107.613281 251.277344 107.53125 C 250.847656 107.449219 250.429688 107.324219 250.027344 107.160156 C 249.621094 106.996094 249.238281 106.792969 248.875 106.550781 C 248.511719 106.308594 248.171875 106.035156 247.863281 105.730469 C 247.550781 105.421875 247.273438 105.089844 247.03125 104.726562 C 246.785156 104.367188 246.578125 103.984375 246.410156 103.582031 C 246.238281 103.179688 246.109375 102.765625 246.023438 102.339844 C 245.9375 101.910156 245.890625 101.480469 245.886719 101.042969 L 245.886719 100.960938 C 245.890625 100.523438 245.9375 100.09375 246.027344 99.671875 C 246.113281 99.246094 246.242188 98.832031 246.410156 98.433594 C 246.578125 98.03125 246.785156 97.652344 247.027344 97.292969 C 247.273438 96.929688 247.546875 96.597656 247.855469 96.292969 C 248.164062 95.984375 248.5 95.710938 248.859375 95.472656 C 249.222656 95.230469 249.605469 95.027344 250.003906 94.859375 C 250.40625 94.695312 250.820312 94.566406 251.246094 94.484375 C 251.671875 94.398438 252.105469 94.355469 252.539062 94.351562 Z M 180.660156 94.332031 L 194.007812 94.332031 L 194.007812 107.667969 L 180.660156 107.667969 Z M 122.128906 107.667969 C 121.691406 107.667969 121.257812 107.625 120.828125 107.539062 C 120.402344 107.457031 119.984375 107.332031 119.582031 107.164062 C 119.179688 106.996094 118.792969 106.792969 118.429688 106.550781 C 118.066406 106.308594 117.730469 106.035156 117.421875 105.726562 C 117.113281 105.417969 116.835938 105.085938 116.59375 104.722656 C 116.347656 104.359375 116.144531 103.976562 115.976562 103.574219 C 115.808594 103.171875 115.679688 102.757812 115.59375 102.328125 C 115.507812 101.902344 115.464844 101.46875 115.464844 101.035156 C 115.460938 100.597656 115.503906 100.164062 115.585938 99.738281 C 115.671875 99.308594 115.796875 98.894531 115.960938 98.488281 C 116.128906 98.085938 116.332031 97.703125 116.574219 97.339844 C 116.816406 96.976562 117.089844 96.640625 117.398438 96.328125 C 117.703125 96.019531 118.039062 95.742188 118.402344 95.5 C 118.765625 95.257812 119.144531 95.050781 119.550781 94.882812 C 119.953125 94.714844 120.367188 94.585938 120.796875 94.5 C 121.222656 94.410156 121.65625 94.367188 122.09375 94.367188 C 122.527344 94.363281 122.960938 94.402344 123.390625 94.488281 C 123.820312 94.570312 124.234375 94.695312 124.640625 94.859375 C 125.042969 95.023438 125.425781 95.226562 125.792969 95.46875 C 126.15625 95.707031 126.492188 95.980469 126.804688 96.289062 C 127.113281 96.597656 127.390625 96.929688 127.636719 97.292969 C 127.878906 97.652344 128.085938 98.035156 128.257812 98.4375 C 128.425781 98.839844 128.554688 99.253906 128.644531 99.679688 C 128.730469 100.109375 128.777344 100.539062 128.777344 100.976562 L 128.777344 101.058594 C 128.773438 101.492188 128.726562 101.921875 128.636719 102.347656 C 128.546875 102.769531 128.417969 103.183594 128.25 103.582031 C 128.082031 103.980469 127.875 104.359375 127.632812 104.71875 C 127.386719 105.078125 127.113281 105.410156 126.804688 105.714844 C 126.496094 106.023438 126.160156 106.292969 125.800781 106.535156 C 125.4375 106.773438 125.058594 106.976562 124.65625 107.144531 C 124.253906 107.308594 123.84375 107.433594 123.417969 107.519531 C 122.992188 107.605469 122.5625 107.648438 122.128906 107.648438 Z M 115.472656 159.46875 L 128.820312 159.46875 L 128.820312 172.800781 L 115.472656 172.800781 Z M 190.367188 121.824219 C 190.09375 121.234375 189.683594 120.761719 189.136719 120.410156 C 188.585938 120.058594 187.984375 119.882812 187.332031 119.882812 C 186.679688 119.882812 186.082031 120.058594 185.53125 120.410156 C 184.980469 120.761719 184.570312 121.234375 184.300781 121.824219 L 162.476562 169.277344 C 162.324219 169.601562 162.230469 169.945312 162.191406 170.300781 C 162.152344 170.65625 162.167969 171.007812 162.242188 171.359375 C 162.316406 171.710938 162.445312 172.039062 162.625 172.347656 C 162.804688 172.660156 163.027344 172.933594 163.296875 173.167969 C 163.566406 173.40625 163.867188 173.59375 164.195312 173.734375 C 164.523438 173.875 164.867188 173.960938 165.226562 173.992188 C 165.582031 174.023438 165.933594 173.996094 166.285156 173.914062 C 166.632812 173.828125 166.960938 173.695312 167.265625 173.503906 L 187.332031 161.113281 L 207.402344 173.503906 C 207.707031 173.695312 208.035156 173.828125 208.382812 173.914062 C 208.730469 173.996094 209.082031 174.023438 209.441406 173.992188 C 209.796875 173.960938 210.140625 173.875 210.472656 173.734375 C 210.800781 173.59375 211.101562 173.40625 211.367188 173.167969 C 211.636719 172.933594 211.863281 172.660156 212.042969 172.347656 C 212.222656 172.039062 212.351562 171.710938 212.425781 171.359375 C 212.5 171.007812 212.515625 170.65625 212.476562 170.300781 C 212.433594 169.945312 212.339844 169.601562 212.191406 169.277344 Z M 189.089844 154.355469 C 188.550781 154.023438 187.964844 153.859375 187.332031 153.859375 C 186.699219 153.859375 186.117188 154.023438 185.578125 154.355469 L 173.152344 162.023438 L 187.332031 131.191406 L 201.511719 162.015625 Z M 314.738281 138.019531 L 314.738281 91.015625 C 314.738281 90.574219 314.824219 90.148438 314.992188 89.738281 C 315.160156 89.332031 315.402344 88.96875 315.714844 88.65625 C 316.027344 88.34375 316.390625 88.105469 316.796875 87.933594 C 317.207031 87.765625 317.632812 87.679688 318.074219 87.679688 C 318.515625 87.679688 318.941406 87.765625 319.351562 87.933594 C 319.761719 88.105469 320.121094 88.34375 320.433594 88.65625 C 320.746094 88.96875 320.988281 89.332031 321.15625 89.738281 C 321.328125 90.148438 321.410156 90.574219 321.410156 91.015625 L 321.410156 138.019531 C 321.410156 138.460938 321.328125 138.886719 321.15625 139.296875 C 320.988281 139.703125 320.746094 140.066406 320.433594 140.378906 C 320.121094 140.691406 319.761719 140.929688 319.351562 141.101562 C 318.941406 141.269531 318.515625 141.355469 318.074219 141.355469 C 317.632812 141.355469 317.207031 141.269531 316.796875 141.101562 C 316.390625 140.929688 316.027344 140.691406 315.714844 140.378906 C 315.402344 140.066406 315.160156 139.703125 314.992188 139.296875 C 314.824219 138.886719 314.738281 138.460938 314.738281 138.019531 Z M 314.738281 170.671875 L 314.738281 155.191406 C 314.738281 154.75 314.824219 154.324219 314.992188 153.917969 C 315.160156 153.507812 315.402344 153.148438 315.714844 152.835938 C 316.027344 152.523438 316.390625 152.28125 316.796875 152.113281 C 317.207031 151.945312 317.632812 151.859375 318.074219 151.859375 C 318.515625 151.859375 318.941406 151.945312 319.351562 152.113281 C 319.761719 152.28125 320.121094 152.523438 320.433594 152.835938 C 320.746094 153.148438 320.988281 153.507812 321.15625 153.917969 C 321.328125 154.324219 321.410156 154.75 321.410156 155.191406 L 321.410156 170.679688 C 321.410156 171.121094 321.328125 171.546875 321.15625 171.953125 C 320.988281 172.363281 320.746094 172.722656 320.433594 173.035156 C 320.121094 173.347656 319.761719 173.589844 319.351562 173.757812 C 318.941406 173.925781 318.515625 174.011719 318.074219 174.011719 C 317.632812 174.011719 317.207031 173.925781 316.796875 173.757812 C 316.390625 173.589844 316.027344 173.347656 315.714844 173.035156 C 315.402344 172.722656 315.160156 172.363281 314.992188 171.953125 C 314.824219 171.546875 314.738281 171.121094 314.738281 170.679688 Z M 314.738281 170.671875 " fill-opacity="1" fill-rule="nonzero"/></g></svg>